<svg
   height="512"
   id="svg2"
   style="overflow:visible;fill-rule:evenodd;stroke-width:0.501;stroke-linejoin:bevel"
   version="1.1"
   viewBox="0 0 409.6 409.6"
   width="512"
   sodipodi:docname="parachute.svg"
   inkscape:version="1.3 (0e150ed, 2023-07-21)"
   inkscape:export-filename="parachute.svg"
   inkscape:export-xdpi="300.062"
   inkscape:export-ydpi="300.062"
   xmlns:inkscape="http://www.inkscape.org/namespaces/inkscape"
   xmlns:sodipodi="http://sodipodi.sourceforge.net/DTD/sodipodi-0.dtd"
   xmlns="http://www.w3.org/2000/svg"
   xmlns:svg="http://www.w3.org/2000/svg">
  <sodipodi:namedview
     id="namedview1"
     pagecolor="#ffffff"
     bordercolor="#666666"
     borderopacity="1.0"
     inkscape:showpageshadow="2"
     inkscape:pageopacity="0.0"
     inkscape:pagecheckerboard="0"
     inkscape:deskcolor="#d1d1d1"
     inkscape:zoom="1.5859375"
     inkscape:cx="256"
     inkscape:cy="255.68473"
     inkscape:window-width="1920"
     inkscape:window-height="1147"
     inkscape:window-x="0"
     inkscape:window-y="24"
     inkscape:window-maximized="1"
     inkscape:current-layer="svg2" />
  
  <defs
     id="defs4" />
  <g
     id="g3069"
     transform="matrix(11.377778,0,0,11.377778,-661.33335,-247.46668)"
     class="parachute-color">
    <g
       id="Document"
       style="font-size:16px;font-family:'Times New Roman';fill:var(--parachute-color, currentColor);stroke:none"
       transform="scale(1,-1)">
      <g
         id="Spread"
         transform="translate(0,-360)">
        <g
           id="Layer 1">
          <path
             d="M 72.53,309.899 62.25,324.75 v 10e-4 c 0,7.451 6.216,13.499 13.876,13.499 7.659,0 13.875,-6.048 13.874,-13.5 L 79.719,309.899 c -0.109,0.193 -0.233,0.376 -0.371,0.548 l 9.902,14.303 c 0,1.656 -1.344,3 -3,3 -1.656,0 -3,-1.344 -3,-3 L 78.75,312 c -0.157,0.219 -0.547,0.575 -0.75,0.75 l 4.5,12 c 0,1.656 -1.344,3 -3,3 -1.656,0 -3,-1.344 -3,-3 v -11.271 c -0.124,0.013 -0.249,0.021 -0.375,0.021 -0.127,0 -0.252,-0.008 -0.376,-0.021 l 0.001,11.271 c 0,1.656 -1.344,3 -3,3 -1.656,0 -3,-1.344 -3,-3 l 4.5,-12 C 74.046,312.574 73.657,312.219 73.5,312 L 69,324.75 c 0,1.656 -1.344,3 -3,3 -1.656,0 -3,-1.344 -3,-3 l 9.901,-14.303 c -0.138,-0.172 -0.262,-0.355 -0.371,-0.548 z"
             id="path86"
             style="fill:var(--parachute-color, currentColor);stroke:none;marker-start:none;marker-end:none" />
          <path
             d="m 74.251,303.036 v 2.179 c 0,0.059 0.006,0.117 0.018,0.172 -0.012,0.064 -0.018,0.131 -0.018,0.199 v 0.509 c -0.325,0.157 -0.661,0.491 -0.851,0.878 l -1.258,2.553 c -0.264,0.537 -0.148,0.973 0.258,0.973 h 10e-4 c 0.406,0 0.952,-0.436 1.216,-0.973 l 0.845,-1.719 c 0.198,0.268 0.516,0.443 0.874,0.443 h 0.788 c -1.035,0 -1.875,0.84 -1.875,1.875 0,1.035 0.84,1.875 1.875,1.875 1.035,0 1.875,-0.84 1.875,-1.875 0,-1.035 -0.84,-1.875 -1.875,-1.875 h 0.791 c 0.357,0 0.675,-0.174 0.872,-0.442 l 0.846,1.718 c 0.264,0.537 0.81,0.973 1.216,0.973 h 10e-4 c 0.406,0 0.522,-0.436 0.258,-0.973 l -1.258,-2.553 c -0.19,-0.387 -0.526,-0.721 -0.851,-0.878 L 78,305.586 c 0,-0.068 -0.007,-0.135 -0.019,-0.199 0.012,-0.055 0.019,-0.113 0.019,-0.172 v -2.179 c 0,-0.433 -0.336,-0.786 -0.749,-0.786 H 77.25 c -0.413,0 -0.749,0.353 -0.749,0.786 v 1.465 H 75.75 v -1.465 c 0,-0.433 -0.336,-0.786 -0.749,-0.786 H 75 c -0.413,0 -0.749,0.353 -0.749,0.786 z"
             id="path88"
             style="marker-start:none;marker-end:none" />
        </g>
      </g>
    </g>
  </g>
</svg>